<?xml version="1.0" encoding="utf-8"?>
<!-- Generator: Adobe Illustrator 24.0.1, SVG Export Plug-In . SVG Version: 6.00 Build 0)  -->
<svg version="1.1" id="ico" xmlns="http://www.w3.org/2000/svg" xmlns:xlink="http://www.w3.org/1999/xlink" x="0px" y="0px"
	 width="50px" height="50px" viewBox="0 0 50 50" style="enable-background:new 0 0 50 50;" xml:space="preserve">
<path d="M33.481,21.203v10.955c0,0.359,0.291,0.65,0.65,0.65h2.415h0.343c3.379,0,6.128-2.749,6.128-6.128
	c0-3.296-2.618-5.985-5.883-6.115C36.516,14.415,31.31,9.598,25,9.598s-11.516,4.818-12.135,10.968
	c-3.265,0.13-5.883,2.819-5.883,6.115c0,3.333,2.677,6.048,5.993,6.121c0.169,0.948,0.495,2.003,1.123,2.776
	c1.196,1.471,3.542,2.999,6.025,3.124c0.344,0.986,1.273,1.7,2.375,1.7c1.393,0,2.525-1.134,2.525-2.526s-1.133-2.525-2.525-2.525
	c-1.228,0-2.251,0.881-2.477,2.044c-1.947-0.163-3.898-1.385-4.914-2.636c-0.422-0.519-0.667-1.246-0.811-1.949h1.571
	c0.359,0,0.65-0.291,0.65-0.65V21.203c0-0.359-0.291-0.65-0.65-0.65H14.18c0.62-5.425,5.232-9.654,10.82-9.654
	s10.201,4.229,10.82,9.654h-1.688C33.772,20.553,33.481,20.844,33.481,21.203z M22.499,36.651c0.676,0,1.225,0.549,1.225,1.225
	s-0.549,1.226-1.225,1.226s-1.225-0.55-1.225-1.226S21.823,36.651,22.499,36.651z M8.283,26.681c0-2.559,2.001-4.659,4.52-4.818
	v8.668c-0.002,0.065-0.007,0.249,0,0.521v0.367v0.081C10.284,31.34,8.283,29.239,8.283,26.681z M15.218,31.508h-1.092
	c-0.012-0.175-0.019-0.333-0.022-0.468v-9.186h1.114V31.508z M41.717,26.681c0,2.559-2.001,4.659-4.52,4.818v-0.081v-9.556
	C39.716,22.021,41.717,24.122,41.717,26.681z M34.782,21.854h1.114v9.564v0.09h-1.114V21.854z"/>
</svg>
