<svg id="Layer_1" enable-background="new 0 0 512 512" height="512" viewBox="0 0 512 512" width="512" xmlns="http://www.w3.org/2000/svg"><g><path d="m95.333 0c-43.708 0-79.266 35.559-79.266 79.267 0 56.747 67.579 106.451 70.455 108.54 2.628 1.907 5.72 2.86 8.812 2.86s6.184-.953 8.812-2.86c2.876-2.089 70.455-51.793 70.455-108.54-.001-43.708-35.559-79.267-79.268-79.267zm.042 156.49c-24.305-20.688-49.308-50.617-49.308-77.224 0-27.165 22.101-49.266 49.266-49.266s49.267 22.101 49.267 49.267c0 29.188-30.208 61.05-49.225 77.223z"/><circle cx="95.333" cy="79.267" r="15"/><path d="m432.733 321.333c-43.708 0-79.267 35.559-79.267 79.267 0 56.747 67.579 106.451 70.455 108.54 2.628 1.906 5.72 2.86 8.812 2.86s6.184-.954 8.812-2.86c2.876-2.089 70.455-51.793 70.455-108.54 0-43.708-35.559-79.267-79.267-79.267zm.042 156.49c-24.305-20.688-49.308-50.617-49.308-77.224 0-27.166 22.101-49.267 49.267-49.267s49.266 22.102 49.266 49.268c0 29.188-30.208 61.05-49.225 77.223z"/><circle cx="432.733" cy="400.6" r="15"/><path d="m15 415.6c8.284 0 15-6.716 15-15v-32.133c0-8.284-6.716-15-15-15s-15 6.716-15 15v32.133c0 8.284 6.716 15 15 15z"/><path d="m143.533 257.066h-32.133c-8.284 0-15 6.716-15 15s6.716 15 15 15h32.133c8.284 0 15-6.716 15-15s-6.716-15-15-15z"/><path d="m239.933 482h-32.133c-8.284 0-15 6.716-15 15s6.716 15 15 15h32.133c8.284 0 15-6.716 15-15s-6.716-15-15-15z"/><path d="m239.933 257.066h-32.133c-8.284 0-15 6.716-15 15s6.716 15 15 15h32.133c8.284 0 15-6.716 15-15s-6.716-15-15-15z"/><path d="m336.333 482h-32.133c-8.284 0-15 6.716-15 15s6.716 15 15 15h32.133c8.284 0 15-6.716 15-15s-6.715-15-15-15z"/><path d="m239.933 128.533h-32.133c-8.284 0-15 6.716-15 15s6.716 15 15 15h32.133c8.284 0 15-6.716 15-15s-6.716-15-15-15z"/><path d="m143.533 482h-32.133c-8.284 0-15 6.716-15 15s6.716 15 15 15h32.133c8.284 0 15-6.716 15-15s-6.716-15-15-15z"/><path d="m304.216 128.533h-.016c-8.284 0-14.992 6.716-14.992 15s6.724 15 15.008 15c9.438 0 17.117 7.679 17.117 17.134 0 8.284 6.716 14.992 15 14.992s15-6.725 15-15.009c0-25.98-21.136-47.117-47.117-47.117z"/><path d="m47.117 257.066c-25.98 0-47.117 21.137-47.117 47.134 0 8.284 6.716 14.992 15 14.992s15-6.725 15-15.009c0-9.438 7.679-17.117 17.117-17.117h.016c8.284 0 14.992-6.716 14.992-15s-6.724-15-15.008-15z"/><path d="m336.333 224.941c-8.284 0-15 6.724-15 15.008 0 9.438-7.679 17.117-17.117 17.117h-.016c-8.284 0-14.992 6.716-14.992 15s6.724 15 15.008 15c25.98 0 47.117-21.137 47.117-47.133 0-8.284-6.715-14.992-15-14.992z"/><path d="m47.117 482c-9.438 0-17.117-7.679-17.117-17.134 0-8.284-6.716-14.992-15-14.992s-15 6.725-15 15.009c0 25.98 21.137 47.117 47.117 47.117h.016c8.284 0 14.992-6.716 14.992-15s-6.724-15-15.008-15z"/></g></svg>